<svg role="img" class="i-icon i-icon-shoppingBag" xmlns="http://www.w3.org/2000/svg" width="24" height="24" viewBox="0 0 24 24" focusable="false">
    <g>
        <path d="M9 5.03a2.006 2.006 0 0 1 2-2h2a2.006 2.006 0 0 1 2 2v2h1v-2a3.009 3.009 0 0 0-3-3h-2a3.009 3.009 0 0 0-3 3v2h1z" transform="translate(12 12) translate(-12 -12)"></path>
        <path d="M19 6.03v14.04a1 1 0 0 1-1 .97H6a1 1 0 0 1-1-.97V6.03H4v14a2.006 2.006 0 0 0 2 2h12a2.006 2.006 0 0 0 2-2v-14z" transform="translate(12 12) translate(-12 -12)"></path>
    </g>
</svg>