<svg role="img" class="i-icon i-icon-wishlist" xmlns="http://www.w3.org/2000/svg" aria-hidden="true" width="24" height="24" viewBox="0 0 24 24">
<path fill="none" d="M558.009 377.91a4.746 4.746 0 0 0-4.25 2.638 4.747 4.747 0 0 0-9 2.112c0 7.28 9 13.25 9 13.25s9-5.97 9-13.25a4.75 4.75 0 0 0-4.75-4.75z" transform="translate(-541.758 -374.906)"></path>
<path d="M81.25 107.273a4.745 4.745 0 0 0-4.25 2.638 4.747 4.747 0 0 0-9 2.112c0 7.28 9 13.25 9 13.25s9-5.97 9-13.25a4.75 4.75 0 0 0-4.75-4.75zM77 124.045c-1.782-1.319-7.289-5.786-7.937-11.022a5.364 5.364 0 0 1-.062-1 3.754 3.754 0 0 1 7.5-.25h1a3.754 3.754 0 0 1 7.5.25 5.364 5.364 0 0 1-.062 1c-.649 5.236-6.156 9.703-7.939 11.022z" transform="translate(-65 -104.273)"></path>
<path fill="none" d="M0 0H24V24H0z"></path>
</svg>