<svg version="1.0" xmlns="http://www.w3.org/2000/svg" width="180" height="180" viewBox="0 0 70.000000 70.000000" preserveAspectRatio="xMidYMid meet">
<g transform="translate(0.000000,70.000000) scale(0.100000,-0.100000)" fill="#000000" stroke="none">
<path d="M240 657 c-34 -17 -65 -76 -91 -172 -11 -44 -25 -85 -31 -92 -6 -7 -6 -19 0 -30 5 -10 14 -40 21 -67 24 -99 92 -195 171 -243 34 -20 36 -20 64 -2 54 33 113 98 139 152 31 65 60 165 54 186 -3 9 -17 55 -30 103 -42 147 -87 194 -164 170 -23 -7 -42 -8 -54 -2 -24 13 -49 12 -79 -3z m94 -95 c9 -15 -9 -28 -39 -27 -46 3 -48 4 -35 20 13 16 65 21 74 7z m94 -13 c2 -13 -5 -16 -32 -15 -39 1 -51 9 -41 26 10 17 69 8 73 -11z m-104 -154 c14 -13 26 -29 26 -35 0 -6 4 -9 10 -5 5 3 7 12 3 20 -15 41 59 60 116 30 75 -38 54 -176 -43 -277 -79 -83 -102 -84 -177 -7 -56 58 -89 121 -96 187 -4 43 -2 51 25 80 39 41 95 45 136 7z"/>
</g>
</svg>