<svg version="1.0" xmlns="http://www.w3.org/2000/svg" width="268.000000pt" height="81.000000pt" viewBox="0 0 268.000000 81.000000" preserveAspectRatio="xMidYMid meet">

<g transform="translate(0.000000,81.000000) scale(0.100000,-0.100000)" fill="#ffffff" stroke="none">
<path d="M857 708 l-35 -102 119 -238 c134 -268 141 -295 87 -328 l-33 -20 200 0 200 1 -35 19 c-19 10 -49 33 -67 52 -31 33 -44 57 -213 383 -157 303 -174 335 -181 335 -4 0 -22 -46 -42 -102z"/>
<path d="M1538 786 c-155 -64 -236 -177 -246 -345 -13 -238 123 -397 369 -431 103 -14 193 -6 278 26 77 29 86 29 111 4 20 -20 20 -20 19 103 l0 122 -23 -50 c-58 -125 -142 -187 -254 -189 -189 -2 -304 173 -285 434 17 229 128 353 304 337 104 -9 175 -65 228 -177 l31 -65 0 124 c0 120 -1 123 -18 108 -24 -22 -56 -21 -120 3 -43 17 -76 20 -195 20 -126 0 -149 -3 -199 -24z"/>
<path d="M30 782 c68 -33 71 -50 68 -383 -3 -329 -1 -316 -73 -360 -30 -19 -24 -19 335 -19 364 0 365 0 334 19 -60 36 -60 52 -3 232 55 177 55 175 16 93 -70 -145 -158 -259 -229 -295 -46 -24 -111 -24 -149 -2 -56 33 -59 54 -59 360 0 261 1 280 20 311 11 18 35 39 53 47 29 13 14 14 -158 15 -187 0 -190 0 -155 -18z"/>
<path d="M2398 784 c29 -20 29 -62 0 -100 -12 -16 -72 -83 -134 -150 l-112 -120 89 -135 c50 -73 95 -145 100 -159 15 -37 2 -69 -34 -85 -29 -13 -12 -14 171 -15 111 0 202 3 202 8 0 4 -18 15 -39 25 -21 9 -54 32 -72 50 -32 32 -262 358 -274 388 -7 19 171 219 221 249 22 12 62 31 89 41 l50 18 -140 1 c-129 0 -138 -1 -117 -16z"/>
</g>
</svg>
